<?xml version="1.0" encoding="UTF-8"?>
<svg xmlns="http://www.w3.org/2000/svg" xmlns:xlink="http://www.w3.org/1999/xlink" version="1.1" width="500px" height="500px" viewBox="0 0 500 500"><defs><rect id="r0" width="12" height="12" fill="#262626"/></defs><rect x="0" y="0" width="500" height="500" fill="#ffffff"/><use x="52" y="52" xlink:href="#r0"/><use x="64" y="52" xlink:href="#r0"/><use x="76" y="52" xlink:href="#r0"/><use x="88" y="52" xlink:href="#r0"/><use x="100" y="52" xlink:href="#r0"/><use x="112" y="52" xlink:href="#r0"/><use x="124" y="52" xlink:href="#r0"/><use x="160" y="52" xlink:href="#r0"/><use x="172" y="52" xlink:href="#r0"/><use x="184" y="52" xlink:href="#r0"/><use x="208" y="52" xlink:href="#r0"/><use x="268" y="52" xlink:href="#r0"/><use x="292" y="52" xlink:href="#r0"/><use x="304" y="52" xlink:href="#r0"/><use x="340" y="52" xlink:href="#r0"/><use x="364" y="52" xlink:href="#r0"/><use x="376" y="52" xlink:href="#r0"/><use x="388" y="52" xlink:href="#r0"/><use x="400" y="52" xlink:href="#r0"/><use x="412" y="52" xlink:href="#r0"/><use x="424" y="52" xlink:href="#r0"/><use x="436" y="52" xlink:href="#r0"/><use x="52" y="64" xlink:href="#r0"/><use x="124" y="64" xlink:href="#r0"/><use x="184" y="64" xlink:href="#r0"/><use x="196" y="64" xlink:href="#r0"/><use x="256" y="64" xlink:href="#r0"/><use x="304" y="64" xlink:href="#r0"/><use x="316" y="64" xlink:href="#r0"/><use x="340" y="64" xlink:href="#r0"/><use x="364" y="64" xlink:href="#r0"/><use x="436" y="64" xlink:href="#r0"/><use x="52" y="76" xlink:href="#r0"/><use x="76" y="76" xlink:href="#r0"/><use x="88" y="76" xlink:href="#r0"/><use x="100" y="76" xlink:href="#r0"/><use x="124" y="76" xlink:href="#r0"/><use x="160" y="76" xlink:href="#r0"/><use x="172" y="76" xlink:href="#r0"/><use x="184" y="76" xlink:href="#r0"/><use x="220" y="76" xlink:href="#r0"/><use x="232" y="76" xlink:href="#r0"/><use x="244" y="76" xlink:href="#r0"/><use x="268" y="76" xlink:href="#r0"/><use x="280" y="76" xlink:href="#r0"/><use x="304" y="76" xlink:href="#r0"/><use x="364" y="76" xlink:href="#r0"/><use x="388" y="76" xlink:href="#r0"/><use x="400" y="76" xlink:href="#r0"/><use x="412" y="76" xlink:href="#r0"/><use x="436" y="76" xlink:href="#r0"/><use x="52" y="88" xlink:href="#r0"/><use x="76" y="88" xlink:href="#r0"/><use x="88" y="88" xlink:href="#r0"/><use x="100" y="88" xlink:href="#r0"/><use x="124" y="88" xlink:href="#r0"/><use x="148" y="88" xlink:href="#r0"/><use x="172" y="88" xlink:href="#r0"/><use x="184" y="88" xlink:href="#r0"/><use x="220" y="88" xlink:href="#r0"/><use x="256" y="88" xlink:href="#r0"/><use x="268" y="88" xlink:href="#r0"/><use x="292" y="88" xlink:href="#r0"/><use x="340" y="88" xlink:href="#r0"/><use x="364" y="88" xlink:href="#r0"/><use x="388" y="88" xlink:href="#r0"/><use x="400" y="88" xlink:href="#r0"/><use x="412" y="88" xlink:href="#r0"/><use x="436" y="88" xlink:href="#r0"/><use x="52" y="100" xlink:href="#r0"/><use x="76" y="100" xlink:href="#r0"/><use x="88" y="100" xlink:href="#r0"/><use x="100" y="100" xlink:href="#r0"/><use x="124" y="100" xlink:href="#r0"/><use x="148" y="100" xlink:href="#r0"/><use x="172" y="100" xlink:href="#r0"/><use x="196" y="100" xlink:href="#r0"/><use x="208" y="100" xlink:href="#r0"/><use x="232" y="100" xlink:href="#r0"/><use x="244" y="100" xlink:href="#r0"/><use x="280" y="100" xlink:href="#r0"/><use x="292" y="100" xlink:href="#r0"/><use x="328" y="100" xlink:href="#r0"/><use x="364" y="100" xlink:href="#r0"/><use x="388" y="100" xlink:href="#r0"/><use x="400" y="100" xlink:href="#r0"/><use x="412" y="100" xlink:href="#r0"/><use x="436" y="100" xlink:href="#r0"/><use x="52" y="112" xlink:href="#r0"/><use x="124" y="112" xlink:href="#r0"/><use x="160" y="112" xlink:href="#r0"/><use x="172" y="112" xlink:href="#r0"/><use x="208" y="112" xlink:href="#r0"/><use x="220" y="112" xlink:href="#r0"/><use x="304" y="112" xlink:href="#r0"/><use x="316" y="112" xlink:href="#r0"/><use x="364" y="112" xlink:href="#r0"/><use x="436" y="112" xlink:href="#r0"/><use x="52" y="124" xlink:href="#r0"/><use x="64" y="124" xlink:href="#r0"/><use x="76" y="124" xlink:href="#r0"/><use x="88" y="124" xlink:href="#r0"/><use x="100" y="124" xlink:href="#r0"/><use x="112" y="124" xlink:href="#r0"/><use x="124" y="124" xlink:href="#r0"/><use x="148" y="124" xlink:href="#r0"/><use x="172" y="124" xlink:href="#r0"/><use x="196" y="124" xlink:href="#r0"/><use x="220" y="124" xlink:href="#r0"/><use x="244" y="124" xlink:href="#r0"/><use x="268" y="124" xlink:href="#r0"/><use x="292" y="124" xlink:href="#r0"/><use x="316" y="124" xlink:href="#r0"/><use x="340" y="124" xlink:href="#r0"/><use x="364" y="124" xlink:href="#r0"/><use x="376" y="124" xlink:href="#r0"/><use x="388" y="124" xlink:href="#r0"/><use x="400" y="124" xlink:href="#r0"/><use x="412" y="124" xlink:href="#r0"/><use x="424" y="124" xlink:href="#r0"/><use x="436" y="124" xlink:href="#r0"/><use x="160" y="136" xlink:href="#r0"/><use x="196" y="136" xlink:href="#r0"/><use x="208" y="136" xlink:href="#r0"/><use x="232" y="136" xlink:href="#r0"/><use x="268" y="136" xlink:href="#r0"/><use x="316" y="136" xlink:href="#r0"/><use x="52" y="148" xlink:href="#r0"/><use x="64" y="148" xlink:href="#r0"/><use x="112" y="148" xlink:href="#r0"/><use x="124" y="148" xlink:href="#r0"/><use x="136" y="148" xlink:href="#r0"/><use x="160" y="148" xlink:href="#r0"/><use x="172" y="148" xlink:href="#r0"/><use x="196" y="148" xlink:href="#r0"/><use x="220" y="148" xlink:href="#r0"/><use x="244" y="148" xlink:href="#r0"/><use x="256" y="148" xlink:href="#r0"/><use x="268" y="148" xlink:href="#r0"/><use x="280" y="148" xlink:href="#r0"/><use x="292" y="148" xlink:href="#r0"/><use x="316" y="148" xlink:href="#r0"/><use x="328" y="148" xlink:href="#r0"/><use x="340" y="148" xlink:href="#r0"/><use x="388" y="148" xlink:href="#r0"/><use x="400" y="148" xlink:href="#r0"/><use x="52" y="160" xlink:href="#r0"/><use x="76" y="160" xlink:href="#r0"/><use x="88" y="160" xlink:href="#r0"/><use x="136" y="160" xlink:href="#r0"/><use x="148" y="160" xlink:href="#r0"/><use x="172" y="160" xlink:href="#r0"/><use x="220" y="160" xlink:href="#r0"/><use x="304" y="160" xlink:href="#r0"/><use x="316" y="160" xlink:href="#r0"/><use x="352" y="160" xlink:href="#r0"/><use x="376" y="160" xlink:href="#r0"/><use x="388" y="160" xlink:href="#r0"/><use x="412" y="160" xlink:href="#r0"/><use x="424" y="160" xlink:href="#r0"/><use x="52" y="172" xlink:href="#r0"/><use x="64" y="172" xlink:href="#r0"/><use x="88" y="172" xlink:href="#r0"/><use x="124" y="172" xlink:href="#r0"/><use x="148" y="172" xlink:href="#r0"/><use x="160" y="172" xlink:href="#r0"/><use x="184" y="172" xlink:href="#r0"/><use x="196" y="172" xlink:href="#r0"/><use x="232" y="172" xlink:href="#r0"/><use x="256" y="172" xlink:href="#r0"/><use x="304" y="172" xlink:href="#r0"/><use x="352" y="172" xlink:href="#r0"/><use x="376" y="172" xlink:href="#r0"/><use x="400" y="172" xlink:href="#r0"/><use x="412" y="172" xlink:href="#r0"/><use x="52" y="184" xlink:href="#r0"/><use x="64" y="184" xlink:href="#r0"/><use x="100" y="184" xlink:href="#r0"/><use x="112" y="184" xlink:href="#r0"/><use x="136" y="184" xlink:href="#r0"/><use x="172" y="184" xlink:href="#r0"/><use x="184" y="184" xlink:href="#r0"/><use x="220" y="184" xlink:href="#r0"/><use x="232" y="184" xlink:href="#r0"/><use x="268" y="184" xlink:href="#r0"/><use x="280" y="184" xlink:href="#r0"/><use x="292" y="184" xlink:href="#r0"/><use x="352" y="184" xlink:href="#r0"/><use x="364" y="184" xlink:href="#r0"/><use x="412" y="184" xlink:href="#r0"/><use x="52" y="196" xlink:href="#r0"/><use x="64" y="196" xlink:href="#r0"/><use x="76" y="196" xlink:href="#r0"/><use x="112" y="196" xlink:href="#r0"/><use x="124" y="196" xlink:href="#r0"/><use x="148" y="196" xlink:href="#r0"/><use x="160" y="196" xlink:href="#r0"/><use x="172" y="196" xlink:href="#r0"/><use x="208" y="196" xlink:href="#r0"/><use x="220" y="196" xlink:href="#r0"/><use x="232" y="196" xlink:href="#r0"/><use x="256" y="196" xlink:href="#r0"/><use x="292" y="196" xlink:href="#r0"/><use x="328" y="196" xlink:href="#r0"/><use x="340" y="196" xlink:href="#r0"/><use x="364" y="196" xlink:href="#r0"/><use x="436" y="196" xlink:href="#r0"/><use x="64" y="208" xlink:href="#r0"/><use x="88" y="208" xlink:href="#r0"/><use x="100" y="208" xlink:href="#r0"/><use x="112" y="208" xlink:href="#r0"/><use x="160" y="208" xlink:href="#r0"/><use x="172" y="208" xlink:href="#r0"/><use x="196" y="208" xlink:href="#r0"/><use x="208" y="208" xlink:href="#r0"/><use x="220" y="208" xlink:href="#r0"/><use x="232" y="208" xlink:href="#r0"/><use x="244" y="208" xlink:href="#r0"/><use x="268" y="208" xlink:href="#r0"/><use x="280" y="208" xlink:href="#r0"/><use x="292" y="208" xlink:href="#r0"/><use x="328" y="208" xlink:href="#r0"/><use x="352" y="208" xlink:href="#r0"/><use x="364" y="208" xlink:href="#r0"/><use x="412" y="208" xlink:href="#r0"/><use x="436" y="208" xlink:href="#r0"/><use x="76" y="220" xlink:href="#r0"/><use x="88" y="220" xlink:href="#r0"/><use x="124" y="220" xlink:href="#r0"/><use x="136" y="220" xlink:href="#r0"/><use x="148" y="220" xlink:href="#r0"/><use x="208" y="220" xlink:href="#r0"/><use x="220" y="220" xlink:href="#r0"/><use x="232" y="220" xlink:href="#r0"/><use x="244" y="220" xlink:href="#r0"/><use x="256" y="220" xlink:href="#r0"/><use x="268" y="220" xlink:href="#r0"/><use x="304" y="220" xlink:href="#r0"/><use x="316" y="220" xlink:href="#r0"/><use x="340" y="220" xlink:href="#r0"/><use x="352" y="220" xlink:href="#r0"/><use x="412" y="220" xlink:href="#r0"/><use x="52" y="232" xlink:href="#r0"/><use x="88" y="232" xlink:href="#r0"/><use x="172" y="232" xlink:href="#r0"/><use x="196" y="232" xlink:href="#r0"/><use x="208" y="232" xlink:href="#r0"/><use x="220" y="232" xlink:href="#r0"/><use x="232" y="232" xlink:href="#r0"/><use x="280" y="232" xlink:href="#r0"/><use x="292" y="232" xlink:href="#r0"/><use x="328" y="232" xlink:href="#r0"/><use x="340" y="232" xlink:href="#r0"/><use x="364" y="232" xlink:href="#r0"/><use x="388" y="232" xlink:href="#r0"/><use x="412" y="232" xlink:href="#r0"/><use x="424" y="232" xlink:href="#r0"/><use x="436" y="232" xlink:href="#r0"/><use x="52" y="244" xlink:href="#r0"/><use x="64" y="244" xlink:href="#r0"/><use x="88" y="244" xlink:href="#r0"/><use x="100" y="244" xlink:href="#r0"/><use x="124" y="244" xlink:href="#r0"/><use x="148" y="244" xlink:href="#r0"/><use x="160" y="244" xlink:href="#r0"/><use x="172" y="244" xlink:href="#r0"/><use x="196" y="244" xlink:href="#r0"/><use x="220" y="244" xlink:href="#r0"/><use x="232" y="244" xlink:href="#r0"/><use x="244" y="244" xlink:href="#r0"/><use x="256" y="244" xlink:href="#r0"/><use x="292" y="244" xlink:href="#r0"/><use x="316" y="244" xlink:href="#r0"/><use x="328" y="244" xlink:href="#r0"/><use x="340" y="244" xlink:href="#r0"/><use x="352" y="244" xlink:href="#r0"/><use x="376" y="244" xlink:href="#r0"/><use x="436" y="244" xlink:href="#r0"/><use x="52" y="256" xlink:href="#r0"/><use x="76" y="256" xlink:href="#r0"/><use x="100" y="256" xlink:href="#r0"/><use x="148" y="256" xlink:href="#r0"/><use x="172" y="256" xlink:href="#r0"/><use x="244" y="256" xlink:href="#r0"/><use x="256" y="256" xlink:href="#r0"/><use x="268" y="256" xlink:href="#r0"/><use x="280" y="256" xlink:href="#r0"/><use x="292" y="256" xlink:href="#r0"/><use x="316" y="256" xlink:href="#r0"/><use x="328" y="256" xlink:href="#r0"/><use x="352" y="256" xlink:href="#r0"/><use x="364" y="256" xlink:href="#r0"/><use x="376" y="256" xlink:href="#r0"/><use x="400" y="256" xlink:href="#r0"/><use x="412" y="256" xlink:href="#r0"/><use x="424" y="256" xlink:href="#r0"/><use x="436" y="256" xlink:href="#r0"/><use x="112" y="268" xlink:href="#r0"/><use x="124" y="268" xlink:href="#r0"/><use x="160" y="268" xlink:href="#r0"/><use x="196" y="268" xlink:href="#r0"/><use x="208" y="268" xlink:href="#r0"/><use x="220" y="268" xlink:href="#r0"/><use x="232" y="268" xlink:href="#r0"/><use x="244" y="268" xlink:href="#r0"/><use x="256" y="268" xlink:href="#r0"/><use x="280" y="268" xlink:href="#r0"/><use x="292" y="268" xlink:href="#r0"/><use x="316" y="268" xlink:href="#r0"/><use x="328" y="268" xlink:href="#r0"/><use x="340" y="268" xlink:href="#r0"/><use x="352" y="268" xlink:href="#r0"/><use x="376" y="268" xlink:href="#r0"/><use x="400" y="268" xlink:href="#r0"/><use x="412" y="268" xlink:href="#r0"/><use x="436" y="268" xlink:href="#r0"/><use x="52" y="280" xlink:href="#r0"/><use x="64" y="280" xlink:href="#r0"/><use x="76" y="280" xlink:href="#r0"/><use x="88" y="280" xlink:href="#r0"/><use x="112" y="280" xlink:href="#r0"/><use x="136" y="280" xlink:href="#r0"/><use x="148" y="280" xlink:href="#r0"/><use x="160" y="280" xlink:href="#r0"/><use x="184" y="280" xlink:href="#r0"/><use x="220" y="280" xlink:href="#r0"/><use x="268" y="280" xlink:href="#r0"/><use x="292" y="280" xlink:href="#r0"/><use x="316" y="280" xlink:href="#r0"/><use x="328" y="280" xlink:href="#r0"/><use x="340" y="280" xlink:href="#r0"/><use x="352" y="280" xlink:href="#r0"/><use x="388" y="280" xlink:href="#r0"/><use x="400" y="280" xlink:href="#r0"/><use x="412" y="280" xlink:href="#r0"/><use x="436" y="280" xlink:href="#r0"/><use x="76" y="292" xlink:href="#r0"/><use x="100" y="292" xlink:href="#r0"/><use x="112" y="292" xlink:href="#r0"/><use x="124" y="292" xlink:href="#r0"/><use x="136" y="292" xlink:href="#r0"/><use x="172" y="292" xlink:href="#r0"/><use x="184" y="292" xlink:href="#r0"/><use x="244" y="292" xlink:href="#r0"/><use x="256" y="292" xlink:href="#r0"/><use x="280" y="292" xlink:href="#r0"/><use x="316" y="292" xlink:href="#r0"/><use x="352" y="292" xlink:href="#r0"/><use x="376" y="292" xlink:href="#r0"/><use x="400" y="292" xlink:href="#r0"/><use x="412" y="292" xlink:href="#r0"/><use x="52" y="304" xlink:href="#r0"/><use x="64" y="304" xlink:href="#r0"/><use x="76" y="304" xlink:href="#r0"/><use x="136" y="304" xlink:href="#r0"/><use x="148" y="304" xlink:href="#r0"/><use x="196" y="304" xlink:href="#r0"/><use x="208" y="304" xlink:href="#r0"/><use x="256" y="304" xlink:href="#r0"/><use x="268" y="304" xlink:href="#r0"/><use x="364" y="304" xlink:href="#r0"/><use x="376" y="304" xlink:href="#r0"/><use x="388" y="304" xlink:href="#r0"/><use x="412" y="304" xlink:href="#r0"/><use x="424" y="304" xlink:href="#r0"/><use x="52" y="316" xlink:href="#r0"/><use x="124" y="316" xlink:href="#r0"/><use x="148" y="316" xlink:href="#r0"/><use x="160" y="316" xlink:href="#r0"/><use x="208" y="316" xlink:href="#r0"/><use x="220" y="316" xlink:href="#r0"/><use x="232" y="316" xlink:href="#r0"/><use x="244" y="316" xlink:href="#r0"/><use x="292" y="316" xlink:href="#r0"/><use x="304" y="316" xlink:href="#r0"/><use x="316" y="316" xlink:href="#r0"/><use x="340" y="316" xlink:href="#r0"/><use x="352" y="316" xlink:href="#r0"/><use x="376" y="316" xlink:href="#r0"/><use x="400" y="316" xlink:href="#r0"/><use x="412" y="316" xlink:href="#r0"/><use x="52" y="328" xlink:href="#r0"/><use x="76" y="328" xlink:href="#r0"/><use x="88" y="328" xlink:href="#r0"/><use x="100" y="328" xlink:href="#r0"/><use x="196" y="328" xlink:href="#r0"/><use x="208" y="328" xlink:href="#r0"/><use x="244" y="328" xlink:href="#r0"/><use x="280" y="328" xlink:href="#r0"/><use x="340" y="328" xlink:href="#r0"/><use x="376" y="328" xlink:href="#r0"/><use x="412" y="328" xlink:href="#r0"/><use x="52" y="340" xlink:href="#r0"/><use x="64" y="340" xlink:href="#r0"/><use x="124" y="340" xlink:href="#r0"/><use x="136" y="340" xlink:href="#r0"/><use x="148" y="340" xlink:href="#r0"/><use x="160" y="340" xlink:href="#r0"/><use x="172" y="340" xlink:href="#r0"/><use x="184" y="340" xlink:href="#r0"/><use x="196" y="340" xlink:href="#r0"/><use x="208" y="340" xlink:href="#r0"/><use x="232" y="340" xlink:href="#r0"/><use x="244" y="340" xlink:href="#r0"/><use x="268" y="340" xlink:href="#r0"/><use x="280" y="340" xlink:href="#r0"/><use x="340" y="340" xlink:href="#r0"/><use x="352" y="340" xlink:href="#r0"/><use x="364" y="340" xlink:href="#r0"/><use x="376" y="340" xlink:href="#r0"/><use x="388" y="340" xlink:href="#r0"/><use x="436" y="340" xlink:href="#r0"/><use x="148" y="352" xlink:href="#r0"/><use x="172" y="352" xlink:href="#r0"/><use x="232" y="352" xlink:href="#r0"/><use x="244" y="352" xlink:href="#r0"/><use x="292" y="352" xlink:href="#r0"/><use x="304" y="352" xlink:href="#r0"/><use x="316" y="352" xlink:href="#r0"/><use x="328" y="352" xlink:href="#r0"/><use x="340" y="352" xlink:href="#r0"/><use x="388" y="352" xlink:href="#r0"/><use x="436" y="352" xlink:href="#r0"/><use x="52" y="364" xlink:href="#r0"/><use x="64" y="364" xlink:href="#r0"/><use x="76" y="364" xlink:href="#r0"/><use x="88" y="364" xlink:href="#r0"/><use x="100" y="364" xlink:href="#r0"/><use x="112" y="364" xlink:href="#r0"/><use x="124" y="364" xlink:href="#r0"/><use x="148" y="364" xlink:href="#r0"/><use x="184" y="364" xlink:href="#r0"/><use x="196" y="364" xlink:href="#r0"/><use x="232" y="364" xlink:href="#r0"/><use x="304" y="364" xlink:href="#r0"/><use x="328" y="364" xlink:href="#r0"/><use x="340" y="364" xlink:href="#r0"/><use x="364" y="364" xlink:href="#r0"/><use x="388" y="364" xlink:href="#r0"/><use x="400" y="364" xlink:href="#r0"/><use x="412" y="364" xlink:href="#r0"/><use x="52" y="376" xlink:href="#r0"/><use x="124" y="376" xlink:href="#r0"/><use x="148" y="376" xlink:href="#r0"/><use x="160" y="376" xlink:href="#r0"/><use x="184" y="376" xlink:href="#r0"/><use x="232" y="376" xlink:href="#r0"/><use x="280" y="376" xlink:href="#r0"/><use x="292" y="376" xlink:href="#r0"/><use x="340" y="376" xlink:href="#r0"/><use x="388" y="376" xlink:href="#r0"/><use x="400" y="376" xlink:href="#r0"/><use x="412" y="376" xlink:href="#r0"/><use x="436" y="376" xlink:href="#r0"/><use x="52" y="388" xlink:href="#r0"/><use x="76" y="388" xlink:href="#r0"/><use x="88" y="388" xlink:href="#r0"/><use x="100" y="388" xlink:href="#r0"/><use x="124" y="388" xlink:href="#r0"/><use x="160" y="388" xlink:href="#r0"/><use x="184" y="388" xlink:href="#r0"/><use x="232" y="388" xlink:href="#r0"/><use x="244" y="388" xlink:href="#r0"/><use x="256" y="388" xlink:href="#r0"/><use x="316" y="388" xlink:href="#r0"/><use x="340" y="388" xlink:href="#r0"/><use x="352" y="388" xlink:href="#r0"/><use x="364" y="388" xlink:href="#r0"/><use x="376" y="388" xlink:href="#r0"/><use x="388" y="388" xlink:href="#r0"/><use x="412" y="388" xlink:href="#r0"/><use x="424" y="388" xlink:href="#r0"/><use x="436" y="388" xlink:href="#r0"/><use x="52" y="400" xlink:href="#r0"/><use x="76" y="400" xlink:href="#r0"/><use x="88" y="400" xlink:href="#r0"/><use x="100" y="400" xlink:href="#r0"/><use x="124" y="400" xlink:href="#r0"/><use x="160" y="400" xlink:href="#r0"/><use x="196" y="400" xlink:href="#r0"/><use x="208" y="400" xlink:href="#r0"/><use x="220" y="400" xlink:href="#r0"/><use x="232" y="400" xlink:href="#r0"/><use x="256" y="400" xlink:href="#r0"/><use x="268" y="400" xlink:href="#r0"/><use x="280" y="400" xlink:href="#r0"/><use x="292" y="400" xlink:href="#r0"/><use x="316" y="400" xlink:href="#r0"/><use x="340" y="400" xlink:href="#r0"/><use x="352" y="400" xlink:href="#r0"/><use x="412" y="400" xlink:href="#r0"/><use x="424" y="400" xlink:href="#r0"/><use x="436" y="400" xlink:href="#r0"/><use x="52" y="412" xlink:href="#r0"/><use x="76" y="412" xlink:href="#r0"/><use x="88" y="412" xlink:href="#r0"/><use x="100" y="412" xlink:href="#r0"/><use x="124" y="412" xlink:href="#r0"/><use x="160" y="412" xlink:href="#r0"/><use x="184" y="412" xlink:href="#r0"/><use x="232" y="412" xlink:href="#r0"/><use x="280" y="412" xlink:href="#r0"/><use x="328" y="412" xlink:href="#r0"/><use x="352" y="412" xlink:href="#r0"/><use x="388" y="412" xlink:href="#r0"/><use x="412" y="412" xlink:href="#r0"/><use x="424" y="412" xlink:href="#r0"/><use x="436" y="412" xlink:href="#r0"/><use x="52" y="424" xlink:href="#r0"/><use x="124" y="424" xlink:href="#r0"/><use x="148" y="424" xlink:href="#r0"/><use x="196" y="424" xlink:href="#r0"/><use x="208" y="424" xlink:href="#r0"/><use x="232" y="424" xlink:href="#r0"/><use x="268" y="424" xlink:href="#r0"/><use x="292" y="424" xlink:href="#r0"/><use x="340" y="424" xlink:href="#r0"/><use x="352" y="424" xlink:href="#r0"/><use x="376" y="424" xlink:href="#r0"/><use x="412" y="424" xlink:href="#r0"/><use x="52" y="436" xlink:href="#r0"/><use x="64" y="436" xlink:href="#r0"/><use x="76" y="436" xlink:href="#r0"/><use x="88" y="436" xlink:href="#r0"/><use x="100" y="436" xlink:href="#r0"/><use x="112" y="436" xlink:href="#r0"/><use x="124" y="436" xlink:href="#r0"/><use x="148" y="436" xlink:href="#r0"/><use x="160" y="436" xlink:href="#r0"/><use x="172" y="436" xlink:href="#r0"/><use x="196" y="436" xlink:href="#r0"/><use x="220" y="436" xlink:href="#r0"/><use x="232" y="436" xlink:href="#r0"/><use x="244" y="436" xlink:href="#r0"/><use x="256" y="436" xlink:href="#r0"/><use x="280" y="436" xlink:href="#r0"/><use x="316" y="436" xlink:href="#r0"/><use x="328" y="436" xlink:href="#r0"/><use x="340" y="436" xlink:href="#r0"/><use x="376" y="436" xlink:href="#r0"/><use x="400" y="436" xlink:href="#r0"/><use x="424" y="436" xlink:href="#r0"/></svg>
